<svg width="470" height="406" viewBox="0 0 470 406" fill="none" xmlns="http://www.w3.org/2000/svg">
<path fill-rule="evenodd" clip-rule="evenodd" d="M195.051 405.398H0C3.50342 193.827 165.523 20.8218 372.442 0V196.912C273.523 216.08 198.301 301.667 195.051 405.398Z" fill="#FF77B9"/>
<path d="M187.5 256C187.5 256 191.501 224.5 222.5 224.5C253.5 224.5 253.5 256 253.5 256" stroke="black" stroke-width="10" stroke-linecap="round"/>
<path d="M180 298.5C180 298.5 228 322 269.5 321.5C311 321 350.5 298.5 350.5 298.5" stroke="black" stroke-width="10" stroke-linecap="round"/>
<circle cx="309" cy="242" r="40" fill="white"/>
<circle cx="309" cy="242" r="23" fill="black"/>
<path d="M398.452 112.101C399.626 110.212 402.374 110.212 403.548 112.101L427.075 149.961C427.318 150.352 427.648 150.682 428.039 150.925L465.899 174.452C467.788 175.626 467.788 178.374 465.899 179.548L428.039 203.075C427.648 203.318 427.318 203.648 427.075 204.039L403.548 241.899C402.374 243.788 399.626 243.788 398.452 241.899L374.925 204.039C374.682 203.648 374.352 203.318 373.961 203.075L336.101 179.548C334.212 178.374 334.212 175.626 336.101 174.452L373.961 150.925C374.352 150.682 374.682 150.352 374.925 149.961L398.452 112.101Z" fill="white"/>
</svg>
