<svg width="937" height="265" viewBox="0 0 937 265" fill="none" xmlns="http://www.w3.org/2000/svg">
<path d="M0 59C0 53.4772 4.47715 49 10 49H931C934.314 49 937 51.6863 937 55V171C937 174.314 934.314 177 931 177H5.99997C2.68626 177 0 174.314 0 171V59Z" fill="#CDCDED"/>
<rect x="33" width="872" height="265" fill="#0E0E31"/>
<path d="M0 72C0 66.4771 4.47715 62 10 62H931C934.314 62 937 64.6863 937 68V185C937 188.314 934.314 191 931 191H5.99997C2.68626 191 0 188.314 0 185V72Z" fill="#1D1CFF"/>
<path d="M935 60.5C933.722 61.5723 930.5 62 930.5 62C930.5 62 933.689 63.4682 935 64.5C935.982 65.2733 937 67.5 937 67.5V57.5C937 57.5 936.079 59.595 935 60.5Z" fill="#1D1CFF"/>
<path d="M3 61C5.16027 62.0801 9.5 62 9.5 62C9.5 62 4.87522 63.2892 3 65.0001C1.19258 66.6491 0 71.0001 0 71.0001V58.5C0 58.5 1 60 3 61Z" fill="#1D1CFF"/>
</svg>
